<svg width="14" height="20" viewBox="0 0 14 20" version="1.1" xmlns="http://www.w3.org/2000/svg" xmlns:xlink="http://www.w3.org/1999/xlink">
<title>Vector</title>
<desc>Created using Figma</desc>
<g id="Canvas" transform="translate(491 -342)">
<g id="Vector">
<use xlink:href="#path0_fill" transform="translate(-491 342)"/>
</g>
</g>
<defs>
<path id="path0_fill" d="M 11.3802 1.95309C 10.0782 0.650893 8.5069 0 6.66664 0C 4.82629 0 3.25515 0.65103 1.95309 1.95309C 0.651075 3.2551 -1.67015e-07 4.82629 -1.67015e-07 6.66664C -1.67015e-07 7.61292 0.143204 8.38973 0.429566 8.99739L 5.1822 19.0757C 5.31245 19.362 5.51435 19.5877 5.78776 19.7524C 6.06121 19.9174 6.35414 20 6.66673 20C 6.97922 20 7.27229 19.9174 7.5457 19.7524C 7.81915 19.5877 8.02516 19.362 8.16407 19.0757L 12.9034 8.99739C 13.1899 8.38973 13.3332 7.61287 13.3332 6.66664C 13.3334 4.82629 12.6825 3.25529 11.3802 1.95309ZM 9.0233 9.02343C 8.37236 9.67432 7.58683 9.99991 6.66664 9.99991C 5.74644 9.99991 4.96092 9.67432 4.30979 9.02343C 3.65876 8.37231 3.33318 7.58679 3.33318 6.66659C 3.33318 5.74648 3.65876 4.96082 4.30979 4.30989C 4.96092 3.65886 5.74658 3.33327 6.66664 3.33327C 7.58683 3.33327 8.37236 3.65886 9.0233 4.30989C 9.67428 4.96078 9.99986 5.74648 9.99986 6.66659C 9.99986 7.5867 9.67432 8.37217 9.0233 9.02343Z"/>
</defs>
</svg>
