<svg width="17" height="13" viewBox="0 0 17 13" version="1.1" xmlns="http://www.w3.org/2000/svg" xmlns:xlink="http://www.w3.org/1999/xlink">
<title>Group</title>
<desc>Created using Figma</desc>
<g id="Canvas" transform="translate(493 -298)">
<g id="Group">
<g id="Vector">
<use xlink:href="#path0_fill" transform="translate(-493 298)"/>
</g>
<g id="Vector">
<use xlink:href="#path1_fill" transform="translate(-493 302.192)"/>
</g>
</g>
</g>
<defs>
<path id="path0_fill" d="M 1.58805 4.00712C 1.79735 4.15481 2.42825 4.59346 3.4808 5.32284C 4.53337 6.05222 5.33972 6.61382 5.89987 7.00768C 5.96141 7.05085 6.09215 7.1447 6.29217 7.28935C 6.49222 7.4341 6.65845 7.55107 6.79071 7.6403C 6.92308 7.72949 7.08309 7.82954 7.27092 7.94031C 7.45868 8.05097 7.63567 8.13421 7.80186 8.18932C 7.96809 8.24488 8.12196 8.2724 8.2635 8.2724L 8.27279 8.2724L 8.2821 8.2724C 8.42365 8.2724 8.57758 8.24485 8.74381 8.18932C 8.90993 8.13421 9.08709 8.05087 9.27469 7.94031C 9.46238 7.82942 9.6224 7.72946 9.75476 7.6403C 9.88713 7.55107 10.0532 7.4341 10.2533 7.28935C 10.4533 7.14457 10.5842 7.05085 10.6458 7.00768C 11.212 6.61382 12.6525 5.61353 14.9668 4.00692C 15.4161 3.69314 15.7915 3.31451 16.0931 2.8713C 16.3948 2.42829 16.5456 1.96354 16.5456 1.47732C 16.5456 1.07101 16.3993 0.723201 16.1069 0.433927C 15.8145 0.144589 15.4682 -9.86914e-09 15.0683 -9.86914e-09L 1.47722 -9.86914e-09C 1.00329 -9.86914e-09 0.63857 0.160014 0.383122 0.480043C 0.127707 0.800136 0 1.20024 0 1.68031C 0 2.06809 0.169328 2.48831 0.507822 2.9407C 0.846284 3.39313 1.20648 3.74863 1.58805 4.00712Z"/>
<path id="path1_fill" d="M 15.6222 0.803241C 13.6034 2.1696 12.0705 3.23149 11.0243 3.98868C 10.6734 4.24711 10.3888 4.44884 10.1702 4.59339C 9.95164 4.73805 9.66095 4.88577 9.29771 5.03651C 8.93461 5.18747 8.59621 5.26272 8.28223 5.26272L 8.27282 5.26272L 8.26354 5.26272C 7.94962 5.26272 7.61103 5.18747 7.24792 5.03651C 6.88482 4.88577 6.59393 4.73805 6.37541 4.59339C 6.15696 4.44884 5.87225 4.24711 5.52143 3.98868C 4.69041 3.37935 3.16083 2.31739 0.93263 0.803241C 0.581685 0.569493 0.270841 0.301563 0 -1.14482e-07L 0 7.33081C 0 7.73731 0.144589 8.08493 0.433927 8.37423C 0.723201 8.66364 1.07104 8.80829 1.47732 8.80829L 15.0684 8.80829C 15.4746 8.80829 15.8224 8.66364 16.1117 8.37423C 16.4011 8.08483 16.5456 7.73735 16.5456 7.33081L 16.5456 -1.14482e-07C 16.2809 0.295321 15.9732 0.563251 15.6222 0.803241Z"/>
</defs>
</svg>
