<svg width="15" height="15" viewBox="0 0 15 15" version="1.1" xmlns="http://www.w3.org/2000/svg" xmlns:xlink="http://www.w3.org/1999/xlink">
<title>Group</title>
<desc>Created using Figma</desc>
<g id="Canvas" transform="translate(492 -396)">
<g id="Group">
<g id="Vector">
<use xlink:href="#path0_fill" transform="translate(-492 396)"/>
</g>
<g id="Vector">
<use xlink:href="#path1_fill" transform="translate(-487 399.75)"/>
</g>
</g>
</g>
<defs>
<path id="path0_fill" d="M 13.9943 3.73528C 13.3237 2.58626 12.4139 1.67652 11.2649 1.00586C 10.1156 0.335242 8.86105 0 7.50021 0C 6.1395 0 4.88456 0.335242 3.73551 1.00586C 2.5864 1.67642 1.67665 2.58616 1.00597 3.73528C 0.335242 4.88446 0 6.1394 0 7.5C 0 8.86067 0.335345 10.1154 1.00586 11.2647C 1.67652 12.4137 2.58626 13.3234 3.73538 13.9941C 4.88456 14.6647 6.1394 15 7.50007 15C 8.86074 15 10.1157 14.6647 11.2648 13.9941C 12.4139 13.3237 13.3236 12.4137 13.9942 11.2647C 14.6647 10.1155 14.9999 8.8606 14.9999 7.5C 15 6.13926 14.6647 4.88428 13.9943 3.73528ZM 12.0997 10.166C 11.6245 10.9797 10.98 11.6245 10.1662 12.0997C 9.35243 12.5749 8.46379 12.8123 7.5001 12.8123C 6.53665 12.8123 5.64794 12.5749 4.83407 12.0997C 4.0203 11.6244 3.37582 10.9797 2.90057 10.166C 2.42523 9.35219 2.18764 8.46352 2.18764 7.5C 2.18764 6.53641 2.42533 5.64774 2.90057 4.83397C 3.37571 4.0202 4.02037 3.37558 4.83407 2.90037C 5.64784 2.42509 6.53652 2.18754 7.5001 2.18754C 8.46376 2.18754 9.35243 2.42509 10.1662 2.90037C 10.98 3.37561 11.6245 4.0202 12.0997 4.83397C 12.575 5.64774 12.8125 6.53641 12.8125 7.5C 12.8125 8.46352 12.575 9.35219 12.0997 10.166Z"/>
<path id="path1_fill" d="M 3.43749 -1.12736e-07L 2.81243 -1.12736e-07C 2.72113 -1.12736e-07 2.64643 0.0293819 2.5877 0.0879064C 2.52935 0.146499 2.49997 0.221305 2.49997 0.312461L 2.49997 3.75005L 0.312461 3.75005C 0.221237 3.75005 0.146465 3.7793 0.0878384 3.83775C 0.0292796 3.89631 -4.59294e-08 3.97119 -4.59294e-08 4.06251L -4.59294e-08 4.68747C -4.59294e-08 4.77866 0.0292796 4.85357 0.0878384 4.91209C 0.1465 4.97062 0.221408 4.99986 0.312461 4.99986L 3.43766 4.99986C 3.52871 4.99986 3.60365 4.97062 3.66208 4.91209C 3.7206 4.85357 3.75009 4.77866 3.75009 4.68747L 3.75009 0.312461C 3.75009 0.221374 3.7206 0.146602 3.66208 0.0879064C 3.60359 0.0293819 3.52868 -1.12736e-07 3.43749 -1.12736e-07Z"/>
</defs>
</svg>
