<svg width="14" height="20" xmlns="http://www.w3.org/2000/svg" xmlns:xlink="http://www.w3.org/1999/xlink"><title>Vector</title><desc>Created using Figma</desc><use xlink:href="#a"/><defs><path id="a" d="M11.38 1.953C10.078.651 8.507 0 6.667 0c-1.84 0-3.412.651-4.714 1.953C.651 3.255 0 4.826 0 6.667c0 .946.143 1.723.43 2.33l4.752 10.079a1.5 1.5 0 0 0 .606.676 1.676 1.676 0 0 0 1.758 0c.273-.164.48-.39.618-.676l4.74-10.079c.286-.607.43-1.384.43-2.33 0-1.84-.652-3.412-1.954-4.714zm-2.357 7.07A3.209 3.209 0 0 1 6.667 10c-.92 0-1.706-.326-2.357-.977a3.212 3.212 0 0 1-.977-2.356c0-.92.326-1.706.977-2.357a3.212 3.212 0 0 1 2.357-.977c.92 0 1.705.326 2.356.977A3.21 3.21 0 0 1 10 6.667a3.21 3.21 0 0 1-.977 2.356z"/></defs></svg>