<svg width="17" height="13" xmlns="http://www.w3.org/2000/svg" xmlns:xlink="http://www.w3.org/1999/xlink"><title>Group</title><desc>Created using Figma</desc><use xlink:href="#a"/><use xlink:href="#b" transform="translate(0 4.192)"/><defs><path id="a" d="M1.588 4.007c.21.148.84.586 1.893 1.316A447.3 447.3 0 0 1 5.9 7.008l.392.281c.2.145.366.262.499.351.132.09.292.19.48.3.188.111.365.194.53.25.167.055.321.082.463.082h.019c.14 0 .295-.027.46-.083a2.79 2.79 0 0 0 .532-.249c.187-.11.347-.21.48-.3.132-.089.298-.206.498-.35.2-.145.331-.24.393-.282l4.32-3.001c.45-.314.825-.692 1.127-1.136.302-.443.453-.907.453-1.394 0-.406-.147-.754-.44-1.043A1.427 1.427 0 0 0 15.069 0H1.478C1.002 0 .637.16.382.48.128.8 0 1.2 0 1.68c0 .388.17.808.508 1.26.338.453.698.809 1.08 1.067z"/><path id="b" d="M15.622.803a191.62 191.62 0 0 0-4.598 3.186c-.35.258-.635.46-.854.604-.218.145-.51.293-.872.444a2.657 2.657 0 0 1-1.016.226h-.018c-.314 0-.653-.076-1.016-.226a5.273 5.273 0 0 1-.873-.444 21.856 21.856 0 0 1-.854-.604c-.83-.61-2.36-1.672-4.588-3.186A4.89 4.89 0 0 1 0 0v7.33c0 .407.145.755.434 1.044.29.29.637.434 1.043.434h13.591c.407 0 .754-.144 1.044-.434.29-.29.434-.637.434-1.043V0a5.092 5.092 0 0 1-.924.803z"/></defs></svg>