<svg width="15" height="15" xmlns="http://www.w3.org/2000/svg" xmlns:xlink="http://www.w3.org/1999/xlink"><title>Group</title><desc>Created using Figma</desc><use xlink:href="#a"/><use xlink:href="#b" transform="translate(5 3.75)"/><defs><path id="a" d="M13.994 3.735a7.468 7.468 0 0 0-2.73-2.73A7.337 7.337 0 0 0 7.5 0C6.14 0 4.885.335 3.736 1.006a7.467 7.467 0 0 0-2.73 2.73A7.336 7.336 0 0 0 0 7.5c0 1.36.335 2.615 1.006 3.765a7.468 7.468 0 0 0 2.73 2.73A7.337 7.337 0 0 0 7.5 15c1.36 0 2.616-.335 3.765-1.006a7.465 7.465 0 0 0 2.73-2.73A7.338 7.338 0 0 0 15 7.5c0-1.36-.335-2.616-1.006-3.765zM12.1 10.166a5.296 5.296 0 0 1-1.934 1.934 5.193 5.193 0 0 1-2.666.712 5.194 5.194 0 0 1-2.666-.712 5.297 5.297 0 0 1-1.933-1.934A5.192 5.192 0 0 1 2.188 7.5c0-.964.237-1.852.713-2.666A5.295 5.295 0 0 1 4.834 2.9 5.192 5.192 0 0 1 7.5 2.188c.964 0 1.852.237 2.666.712A5.295 5.295 0 0 1 12.1 4.834c.475.814.713 1.702.713 2.666s-.238 1.852-.713 2.666z"/><path id="b" d="M3.437 0h-.625a.305.305 0 0 0-.224.088.305.305 0 0 0-.088.224V3.75H.312a.305.305 0 0 0-.224.088.304.304 0 0 0-.088.225v.624c0 .092.03.167.088.225A.305.305 0 0 0 .312 5h3.126c.09 0 .166-.03.224-.088a.304.304 0 0 0 .088-.225V.312a.305.305 0 0 0-.088-.224A.304.304 0 0 0 3.437 0z"/></defs></svg>